# xmcd
#
# Track frame offsets: 
#        150
#        18215
#        39799
#        65017
#        75185
#        90240
#        104509
#        117647
#        136724
#        155043
#        170676
#        185913
#        203011
#        218423
#        234483
#        253501
#        268819
#        285393
#        307210
#
# Disc length: 4260 seconds
#
# Revision: 0
# Processed by: cddbd v1.5.2PL0 Copyright (c) Steve Scherf et al.
# Submitted via: ExactAudioCopy v1.1
#
DISCID=0310a213
DTITLE=Various Artist - 1000 Klassiekers Radio 2 Vol. 10 - CD 5
DYEAR=2018
DGENRE=Easy Listening
TTITLE0=Dr. Alban - Sing Hallelujah!
TTITLE1=Billy Joel - We Didn't Start The Fire
TTITLE2=Leonard Cohen - So Long, Marianne
TTITLE3=Ramses Shaffy - Sammy
TTITLE4=Anastacia - Paid My Dues
TTITLE5=Louisette - Maria, Maria, Ik Hou Van Jou
TTITLE6=Lynn Anderson - Rose Garden
TTITLE7=Rob De Nijs - Malle Babbe
TTITLE8=Natalia - I Want You Back
TTITLE9=Mama's Jasje - Zonder Verhaal
TTITLE10=The Bangles - Walk Like An Egyptian
TTITLE11=Blue Öyster Cult - (Don't Fear) The Reaper
TTITLE12=The Pointer Sisters - Fire
TTITLE13=Earth, Wind and Fire - September
TTITLE14=Lou Reed - Walk On The Wild Side
TTITLE15=Wim Soutaer - Allemaal
TTITLE16=Men At Work - Down Under
TTITLE17=Simon and Garfunkel - Bridge Over Troubled Water
TTITLE18=Sweet - Funny Funny
EXTD=
EXTT0=
EXTT1=
EXTT2=
EXTT3=
EXTT4=
EXTT5=
EXTT6=
EXTT7=
EXTT8=
EXTT9=
EXTT10=
EXTT11=
EXTT12=
EXTT13=
EXTT14=
EXTT15=
EXTT16=
EXTT17=
EXTT18=
PLAYORDER=
